# xmcd
#
# Track frame offsets:
#  150
#  13480
#  26666
#  36099
#  49145
#  62726
#  74239
#  86157
#  98463
#  111663
#  124422
#  136803
#  150779
#  164383
#  178163
#  188093
#  201405
#
# Disc length: 2848 seconds
#
# Revision: 0
# Processed by: cddbd v1.5.1PL2 Copyright (c) Steve Scherf et al.
# Submitted via: Collectorz.com_Music_Collector 6.9
#
DISCID=f90b1e11
DTITLE=Hank Williams - Jambalya
DYEAR=1900
DGENRE=Country
TTITLE0=You're gonna chance
TTITLE1=Mind your own business
TTITLE2=Rockin' chair money
TTITLE3=Jambalya
TTITLE4=Beyond the sunset
TTITLE5=My bucket's got a hole in it
TTITLE6=Take these chains from my heart
TTITLE7=Howlin' at the moon
TTITLE8=Hey, good lookin'
TTITLE9=Please make up your mind
TTITLE10=I saw the light
TTITLE11=The funeral
TTITLE12=I dreamed about mama last night
TTITLE13=Lovesick blues
TTITLE14=Honky tonk blues
TTITLE15=Help me understand
TTITLE16=Half as much
EXTD=
EXTT0=
EXTT1=
EXTT2=
EXTT3=
EXTT4=
EXTT5=
EXTT6=
EXTT7=
EXTT8=
EXTT9=
EXTT10=
EXTT11=
EXTT12=
EXTT13=
EXTT14=
EXTT15=
EXTT16=
PLAYORDER=
